<?xml version="1.0" encoding="UTF-8"?>
<svg width="800" height="1600" xmlns="http://www.w3.org/2000/svg">
    <style>
        text {
            font-family: Arial, sans-serif;
            font-size: 14px;
        }
        .title {
            font-size: 20px;
            font-weight: bold;
        }
        .section {
            font-size: 16px;
            font-weight: bold;
        }
        .checkmark {
            fill: none;
            stroke: black;
            stroke-width: 2;
        }
    </style>

    <text class="title" x="10" y="30">Linear Algebra Self-Checklist</text>

    <text class="section" x="10" y="70">Scalars, Vectors, and Matrices</text>
    <text x="30" y="90">- What is the main difference between a scalar, a vector, and a matrix?</text>
    <rect class="checkmark" x="10" y="75" width="14" height="14"/>

    <text class="section" x="10" y="130">Matrix Operations</text>
    <text x="30" y="150">- Can you describe matrix addition, subtraction, and scalar multiplication?</text>
    <rect class="checkmark" x="10" y="135" width="14" height="14"/>

    <text x="30" y="170">- Explain matrix multiplication and its properties.</text>
    <rect class="checkmark" x="10" y="155" width="14" height="14"/>

    <text x="30" y="190">- What is the transpose of a matrix and its properties?</text>
    <rect class="checkmark" x="10" y="175" width="14" height="14"/>

    <text x="30" y="210">- Describe the trace, determinant, and inverse of a matrix.</text>
    <rect class="checkmark" x="10" y="195" width="14" height="14"/>

    <text x="30" y="230">- Explain the rank, Hadamard product, and Kronecker product of matrices.</text>
    <rect class="checkmark" x="10" y="215" width="14" height="14"/>

    <text class="section" x="10" y="270">Vector Spaces</text>
    <text x="30" y="290">- Define vector spaces and their properties.</text>
    <rect class="checkmark" x="10" y="275" width="14" height="14"/>

    <text x="30" y="310">- Explain linear independence and dependence.</text>
    <rect class="checkmark" x="10" y="295" width="14" height="14"/>

    <text x="30" y="330">- What is the basis and dimension of a vector space?</text>
    <rect class="checkmark" x="10" y="315" width="14" height="14"/>

    <text x="30" y="350">- Define subspaces and their properties.</text>
    <rect class="checkmark" x="10" y="335" width="14" height="14"/>

       <text x="30" y="370">- Explain the concept of span in a vector space.</text>
    <rect class="checkmark" x="10" y="355" width="14" height="14"/>

    <text x="30" y="390">- Describe orthogonality and its importance in vector spaces.</text>
    <rect class="checkmark" x="10" y="375" width="14" height="14"/>

    <text class="section" x="10" y="430">Linear Transformations</text>
    <text x="30" y="450">- Define linear transformations and their properties.</text>
    <rect class="checkmark" x="10" y="435" width="14" height="14"/>

    <text x="30" y="470">- Explain the kernel and range of a linear transformation.</text>
    <rect class="checkmark" x="10" y="455" width="14" height="14"/>

    <text x="30" y="490">- Describe the matrix representation of a linear transformation.</text>
    <rect class="checkmark" x="10" y="475" width="14" height="14"/>

    <text x="30" y="510">- What is the change of basis in a linear transformation?</text>
    <rect class="checkmark" x="10" y="495" width="14" height="14"/>

    <text class="section" x="10" y="550">Eigenvalues and Eigenvectors</text>
    <text x="30" y="570">- Define eigenvalues and eigenvectors and their properties.</text>
    <rect class="checkmark" x="10" y="555" width="14" height="14"/>

    <text x="30" y="590">- Explain diagonalization and its importance.</text>
    <rect class="checkmark" x="10" y="575" width="14" height="14"/>

    <text x="30" y="610">- Describe eigendecomposition and its applications.</text>
    <rect class="checkmark" x="10" y="595" width="14" height="14"/>

    <text x="30" y="630">- What is the spectral theorem and its significance?</text>
    <rect class="checkmark" x="10" y="615" width="14" height="14"/>

    <text class="section" x="10" y="670">Singular Value Decomposition (SVD)</text>
    <text x="30" y="690">- Define SVD and its properties.</text>
    <rect class="checkmark" x="10" y="675" width="14" height="14"/>

    <text x="30" y="710">- Explain the applications of SVD in machine learning.</text>
    <rect class="checkmark" x="10" y="695" width="14" height="14"/>

    <text class="section" x="10" y="750">Orthogonal and Unitary Matrices</text>
    <text x="30" y="770">- Define orthogonal and unitary matrices and their properties.</text>
    <rect class="checkmark" x="10" y="755" width="14" height="14"/>

    <text x="30" y="790">- Describe QR decomposition and its significance.</text>
    <rect class="checkmark" x="10" y="775" width="14" height="14"/>
    <text x="30" y="810">- What is the Gram-Schmidt process and its applications?</text>
    <rect class="checkmark" x="10" y="795" width="14" height="14"/>

    <text class="section" x="10" y="850">Inner Product Spaces</text>
    <text x="30" y="870">- Define inner product spaces and their properties.</text>
    <rect class="checkmark" x="10" y="855" width="14" height="14"/>

    <text x="30" y="890">- Describe norms and their importance in inner product spaces.</text>
    <rect class="checkmark" x="10" y="875" width="14" height="14"/>

    <text x="30" y="910">- Explain the angle between vectors and its significance.</text>
    <rect class="checkmark" x="10" y="895" width="14" height="14"/>

    <text x="30" y="930">- Define orthogonal and orthonormal sets in inner product spaces.</text>
    <rect class="checkmark" x="10" y="915" width="14" height="14"/>

    <text x="30" y="950">- Describe orthogonal projections and their applications.</text>
    <rect class="checkmark" x="10" y="935" width="14" height="14"/>

    <text x="30" y="970">- Explain the least squares method and its significance.</text>
    <rect class="checkmark" x="10" y="955" width="14" height="14"/>

    <text class="section" x="10" y="1010">Linear Systems of Equations</text>
    <text x="30" y="1030">- Describe Gaussian elimination and its importance.</text>
    <rect class="checkmark" x="10" y="1015" width="14" height="14"/>

    <text x="30" y="1050">- Explain row echelon form and reduced row echelon form.</text>
    <rect class="checkmark" x="10" y="1035" width="14" height="14"/>

    <text x="30" y="1070">- Describe matrix rank and system consistency.</text>
    <rect class="checkmark" x="10" y="1055" width="14" height="14"/>

    <text x="30" y="1090">- Differentiate between homogeneous and non-homogeneous systems.</text>
    <rect class="checkmark" x="10" y="1075" width="14" height="14"/>

    <text x="30" y="1110">- Explain the inverse matrix method for solving linear systems.</text>
    <rect class="checkmark" x="10" y="1095" width="14" height="14"/>

    <text x="30" y="1130">- Describe Cramer's rule and its applications.</text>
    <rect class="checkmark" x="10" y="1115" width="14" height="14"/>

    <text class="section" x="10" y="1170">LU Decomposition</text>
    <text x="30" y="1190">- Define LU decomposition and its properties.</text>
    <rect class="checkmark" x="10" y="1175" width="14" height="14"/>

    <text x="30" y="1210">- Explain the existence and uniqueness of LU decomposition.</text>
    <rect class="checkmark" x="10" y="1195" width="14" height="14"/>

    <text x="30" y="1230">- Describe how to solve linear systems using LU decomposition.</text>
    <rect class="checkmark" x="10" y="1215" width="14" height="14"/>

    <text class="section" x="10" y="1270">Cholesky Decomposition</text>
    <text x="30" y="1290">- Define Cholesky decomposition and its properties.</text>
    <rect class="checkmark" x="10" y="1275" width="14" height="14"/>

    <text x="30" y="1310">- Explain the applications of Cholesky decomposition in machine learning.</text>
    <rect class="checkmark" x="10" y="1295" width="14" height="14"/>

    <text class="section" x="10" y="1350">Quadratic Forms and Positive Definite Matrices</text>
    <text x="30" y="1370">- Define quadratic forms and positive definite matrices and their properties.</text>
    <rect class="checkmark" x="10" y="1355" width="14" height="14"/>

    <text x="30" y="1390">- Describe tests for positive definiteness.</text>
    <rect class="checkmark" x="10" y="1375" width="14" height="14"/>

    <text x="30" y="1410">- Explain the applications of positive definite matrices in machine learning.</text>
    <rect class="checkmark" x="10" y="1395" width="14" height="14"/>

    <text class="section" x="10" y="1450">Principal Component Analysis (PCA)</text>
    <text x="30" y="1470">- Define PCA and its properties.</text>
    <rect class="checkmark" x="10" y="1455" width="14" height="14"/>

    <text x="30" y="1490">- Explain dimensionality reduction using PCA.</text>
    <rect class="checkmark" x="10" y="1475" width="14" height="14"/>

    <text x="30" y="1510">- Describe the connection between PCA, eigenvalues, and eigenvectors.</text>
    <rect class="checkmark" x="10" y="1495" width="14" height="14"/>
</svg>

